<svg width="200" height="200" viewBox="0 0 200 200" fill="none" xmlns="http://www.w3.org/2000/svg">
<path d="M81.4999 108.5C78.1496 103.097 72.096 100.577 69.9999 93.5C65.8042 79.334 74.5068 65.2405 88.4999 60.5C94.6056 58.4316 99.0166 59.0827 105 60C111.287 60.9639 116 65 125 65C135.5 65 140.5 62.7286 148 64.5C156.923 66.6075 161.526 71.0901 167 75C170.5 77.5 176.5 83.111 178 86.5C180.697 92.5944 180.778 97.3411 180.5 104C180.311 108.525 180.019 113.001 179.5 117.5C178.444 126.65 177.104 131.5 176.5 138.5L176.475 138.784C176.101 143.119 175.844 146.09 176 150.5C176.211 156.47 176.5 158.5 178 163.5C178.302 164.507 177.743 166.256 177 167C176.862 167.138 176.694 167.264 176.5 167.38C175.593 167.919 174.122 168.219 172.5 168.381C171.849 168.446 171.173 168.488 170.5 168.515C168.023 168.614 165.578 168.5 164.5 168.5C163.975 168.5 163.474 168.496 163 168.475C160.684 168.372 158.98 167.868 158 165.5C157.72 164.823 157.569 164.144 157.603 163.5C157.64 162.771 157.913 162.086 158.5 161.5C160 160 161.889 159.249 162.5 156.5C163.5 152 162.194 147.018 160 141.5C158.891 138.71 157.328 136.991 156 135C156 135 156.288 141.291 156.5 145C156.846 151.056 156.486 156.003 157 158.5C157.815 162.463 157.015 163.167 155.542 164.463L155.5 164.5C155.199 164.765 154.676 164.982 154 165.156C153.065 165.396 151.838 165.554 150.5 165.642C150.012 165.675 149.509 165.698 149 165.713C147.473 165.756 145.893 165.723 144.5 165.631C143.968 165.595 143.464 165.552 143 165.5C139.011 165.057 138.702 163.509 138.502 162.508L138.5 162.5C138 160 141.126 159.025 142 156C142.913 152.839 142.835 149.961 141.5 146.5C140.728 144.5 140 143.5 139 141C137 136 135.5 133.5 134.5 128C130 128 127.804 127.967 125 127.5C122 127 120.5 126.5 119 125.5C115 132.5 112.761 136.216 110 144.5C109 147.5 109 155.5 110 159.5C110.699 162.297 111.5 164 111.5 166C111.5 167.68 110.002 168.749 108.5 169.5C107.999 169.75 107.498 169.959 107 170.133C105.633 170.609 104.284 170.824 103 170.921C102.489 170.959 101.988 170.979 101.5 170.989C100.984 171 100.483 171 99.9999 171C99.0907 171 98.0388 170.986 96.9999 170.877C96.3125 170.805 95.6308 170.691 94.9999 170.513C93.9623 170.219 93.0621 169.75 92.4999 169L92.4747 168.966C91.9156 168.221 91.5632 167.752 91.3868 167C91.294 166.605 91.2499 166.132 91.2499 165.5C90.9999 166.5 90.5914 167 89.4999 167C89.423 167 89.3461 166.999 89.2694 166.997C87.85 166.962 86.4999 166.583 86.4999 165C86.4999 163.5 89.1116 162.793 88.9999 160C88.4999 147.5 89.4999 137.5 87.4999 124.5C86.4999 118 85.0167 114.171 81.4999 108.5Z" fill="#FDFDF5"/>
<path d="M86.4999 165C86.4999 163.5 89.1116 162.793 88.9999 160C88.4999 147.5 89.4999 137.5 87.4999 124.5C86.4999 118 85.0167 114.171 81.4999 108.5C78.1496 103.097 72.096 100.577 69.9999 93.5C65.8042 79.334 74.5068 65.2405 88.4999 60.5C94.6056 58.4316 99.0166 59.0827 105 60C111.287 60.9639 116 65 125 65C135.5 65 140.5 62.7286 148 64.5C156.923 66.6075 161.526 71.0901 167 75C170.5 77.5 176.5 83.111 178 86.5C180.697 92.5944 180.778 97.3411 180.5 104C180.311 108.525 180.019 113.001 179.5 117.5C178.444 126.65 177.104 131.5 176.5 138.5C176.112 142.991 175.841 145.995 176 150.5C176.211 156.47 176.5 158.5 178 163.5C178.302 164.507 177.743 166.256 177 167C176.862 167.138 176.694 167.264 176.5 167.38M86.4999 165C86.4999 166.583 87.85 166.962 89.2694 166.997M86.4999 165C86.4999 165 88.0876 162.638 89.4999 163.5C91.4562 164.695 89.2694 166.997 89.2694 166.997M91.9999 116.5C91.9999 116.5 92.9999 118 93.4999 120C97.4999 136 94.9999 143 93.4999 161C93.3367 162.958 91.4999 163.5 91.2499 165.5M91.2499 165.5C90.9999 166.5 90.5914 167 89.4999 167C89.423 167 89.3461 166.999 89.2694 166.997M91.2499 165.5C91.2499 166.132 91.294 166.605 91.3868 167M119 125.5C115 132.5 112.761 136.216 110 144.5C109 147.5 109 155.5 110 159.5C110.699 162.297 111.5 164 111.5 166C111.5 167.68 110.002 168.749 108.5 169.5C107.999 169.75 107.498 169.959 107 170.133M119 125.5C121.929 119.642 125.736 116.044 126 109.5C126.187 104.862 124 98 124 98M119 125.5C120.5 126.5 122 127 125 127.5C127.804 127.967 130 128 134.5 128M149.5 127.5C148.751 124.563 148.547 123.031 148.5 120C148.45 116.78 149.192 112.443 150.5 109.5C152.17 105.742 155.5 101 155.5 101M149.5 127.5C151.5 132 154.355 132.535 156 135M149.5 127.5C142 128.5 139.5 128 134.5 128M164.5 168.5C165.578 168.5 168.023 168.614 170.5 168.515M164.5 168.5C164.5 168.5 163.73 163.5 167.5 163.5C171.27 163.5 170.5 168.515 170.5 168.515M164.5 168.5C163.975 168.5 163.474 168.496 163 168.475M134.5 128C135.5 133.5 137 136 139 141C140 143.5 140.728 144.5 141.5 146.5C142.835 149.961 142.913 152.839 142 156C141.126 159.025 138 160 138.5 162.5M138.5 162.5C138.7 163.5 139 165.056 143 165.5M138.5 162.5C138.5 162.5 140.5 159.872 142.5 161C144.692 162.236 143 165.5 143 165.5M143 165.5C143.464 165.552 143.968 165.595 144.5 165.631M156 135C157.328 136.991 158.891 138.71 160 141.5C162.194 147.018 163.5 152 162.5 156.5C161.889 159.249 160 160 158.5 161.5C157.913 162.086 157.64 162.771 157.603 163.5M156 135C156 135 156.288 141.291 156.5 145C156.846 151.056 156.486 156.003 157 158.5C157.823 162.5 157 163.18 155.5 164.5C155.199 164.765 154.676 164.982 154 165.156M176.5 167.38C176.5 167.38 177 163.5 174 164C171 164.5 172.5 168.381 172.5 168.381M176.5 167.38C175.593 167.919 174.122 168.219 172.5 168.381M172.5 168.381C171.849 168.446 171.173 168.488 170.5 168.515M163 168.475C160.684 168.372 158.98 167.868 158 165.5C157.72 164.823 157.569 164.144 157.603 163.5M163 168.475C163 168.475 164.5 164.5 162 163C159.5 161.5 157.603 163.5 157.603 163.5M154 165.156C154 165.156 154.5 161.5 152 162C149.5 162.5 150.5 165.642 150.5 165.642M154 165.156C153.065 165.396 151.838 165.554 150.5 165.642M150.5 165.642C150.012 165.675 149.509 165.698 149 165.713M149 165.713C149 165.713 149.775 160.677 146.5 161C143.5 161.296 144.5 165.631 144.5 165.631M149 165.713C147.473 165.756 145.893 165.723 144.5 165.631M107 170.133C107 170.133 107 166 104.5 166.5C102 167 103 170.921 103 170.921M107 170.133C105.633 170.609 104.284 170.824 103 170.921M103 170.921C102.489 170.959 101.988 170.979 101.5 170.989M101.5 170.989C100.984 171 100.483 171 99.9999 171C99.0907 171 98.0388 170.986 96.9999 170.877M101.5 170.989C101.5 170.989 102.721 166.5 99.2197 166.5C96.4999 166.5 96.9999 170.877 96.9999 170.877M96.9999 170.877C96.3125 170.805 95.6308 170.691 94.9999 170.513M94.9999 170.513C93.9623 170.219 93.0621 169.75 92.4999 169C91.9261 168.235 91.5658 167.763 91.3868 167M94.9999 170.513C94.9999 170.513 97.4999 167.5 95.4999 166C93.4999 164.5 91.3868 167 91.3868 167" stroke="#4B2920" stroke-width="2" stroke-linecap="round"/>
</svg>
