<svg width="200" height="200" viewBox="0 0 200 200" fill="none" xmlns="http://www.w3.org/2000/svg">
<path d="M42.9998 31.5C41.4186 29.9188 35.4996 31.5 33.4995 32.5C31.4993 33.5 37.9995 37 37.9995 41C37.9995 43.0386 33.4998 44.9286 28.9999 47.5C22.0001 51.5 16.0546 55.1766 15.4999 64C15.1472 69.611 15.2731 72.8961 18.4998 77.5C21.3032 81.5 23.4997 83.5 26.9997 85.5C28.9001 86.5859 31.3246 87.5856 33.4995 88.3994C29.0989 90.3039 26.2938 90.9118 21.4996 91C18.1579 91.0615 14.5 90.5 10.9998 90C7.4996 89.5 16.8348 93.9401 22.5 94.5C27.007 94.9454 30.9996 94.9958 34.5 93.5C36.594 92.6051 39 91.5 40.5 90.5C43 91.5 47.1377 92 51.4998 92C56.4997 92 60.2853 93.1701 64.9998 96C65.9997 99.5 69.4998 101.5 77.4997 99.5C85.4997 97.5 87.2606 95.0435 93.9997 91C98.9997 88 103 86.5 105.5 81.5C108.117 76.2655 108.019 69.774 106 65.5C103.981 61.226 101.84 57.756 97.9997 55C91.2899 50.1847 81.9997 53.5 76.9997 52C74.0425 51.1129 72.5135 48.6697 69.4996 48C65.4996 47.1111 61.3244 47.5732 56.4996 50C51.4996 52.5149 46.9995 58.5 42.4996 63.5C38.9947 67.3945 34.4996 69.9375 30.9996 69.5C27.4996 69.0625 26.0551 67.5 25.4996 65C24.2776 59.5 31.7516 57.5401 35.9996 54C38.9996 51.5 45.0283 48.6564 45.4996 43C45.971 37.3436 44.4996 33 42.9998 31.5Z" fill="#FDFDF5"/>
<path d="M70.4997 83C70.4997 83 65.8746 85.5 64.9997 89C64.1248 92.5 64.4284 94 64.9998 96M64.9998 96C60.2853 93.1701 56.4997 92 51.4998 92C47.1377 92 43 91.5 40.5 90.5M64.9998 96C65.9997 99.5 69.4998 101.5 77.4997 99.5C85.4997 97.5 87.2606 95.0435 93.9997 91C98.9997 88 103 86.5 105.5 81.5C108.117 76.2655 108.019 69.774 106 65.5C103.981 61.226 101.84 57.756 97.9997 55C91.2899 50.1847 81.9997 53.5 76.9997 52C74.0425 51.1129 72.5135 48.6697 69.4996 48C65.4996 47.1111 61.3244 47.5732 56.4996 50C51.4996 52.5149 46.9995 58.5 42.4996 63.5C38.9947 67.3945 34.4996 69.9375 30.9996 69.5C27.4996 69.0625 26.0551 67.5 25.4996 65C24.2776 59.5 31.7516 57.5401 35.9996 54C38.9996 51.5 45.0283 48.6564 45.4996 43C45.971 37.3436 44.4996 33 42.9998 31.5C41.4186 29.9188 35.4996 31.5 33.4995 32.5C31.4993 33.5 37.9995 37 37.9995 41C37.9995 43.0386 33.4998 44.9286 28.9999 47.5C22.0001 51.5 16.0546 55.1766 15.4999 64C15.1472 69.611 15.2731 72.8961 18.4998 77.5C21.3032 81.5 23.4997 83.5 26.9997 85.5C28.9001 86.586 31.3246 87.5856 33.4995 88.3994M33.4995 88.3994C37.5 86.668 40.5 84.5 43.5 81.5M33.4995 88.3994C29.0989 90.3039 26.2938 90.9118 21.4996 91C18.1579 91.0615 14.5 90.5 10.9998 90C7.4996 89.5 16.8348 93.9401 22.5 94.5C27.0071 94.9455 30.9996 94.9958 34.5 93.5C36.594 92.6051 39 91.5 40.5 90.5M40.5 90.5C42.75 89 46 87 49 84" stroke="#4B2920" stroke-width="2" stroke-linecap="round"/>
<path d="M61.5 69.5C62.2586 70.1321 62.5 72 61 72C59.5 72 58 71.5 58 70C58 68.5 59.9256 68.1881 61.5 69.5Z" fill="#4B2920"/>
</svg>
