<svg width="90" height="78" viewBox="0 0 90 78" fill="none" xmlns="http://www.w3.org/2000/svg">
<path d="M0 30C0 13.4315 13.4315 0 30 0H60C76.5685 0 90 13.4315 90 30V48C90 64.5685 76.5685 78 60 78H30C13.4315 78 0 64.5685 0 48V30Z" fill="#C6A6EF"/>
<path d="M51.55 28C53.55 32.5 58.0501 32 61.05 30.5" stroke="#4B2920" stroke-width="3" stroke-linecap="round"/>
<path d="M28.55 32C34.55 32.5 36.55 32.5 38.55 28" stroke="#4B2920" stroke-width="3" stroke-linecap="round"/>
<circle cx="35.55" cy="38.5" r="2.5" fill="#4B2920" stroke="#4B2920"/>
<circle cx="55.55" cy="38.5" r="2.5" fill="#4B2920" stroke="#4B2920"/>
<path d="M60.55 45C58.8563 44.5 55.05 44 55.05 46C55.05 47.5 57.5501 48 60.05 48.5L60.05 48.5C62.55 49 65.55 48.343 65.55 46.5C65.55 44.9707 62.2438 45.5 60.55 45Z" fill="#F99090" fill-opacity="0.7"/>
<path d="M30.0501 45.5C27.9058 45.9289 24.5501 46.2706 25.0501 48C25.5501 49.7295 28.6802 49.6494 31.0501 49C32.5501 48.589 35.2168 47.5 34.5501 45.5C33.8834 43.5 31.5501 45.2 30.0501 45.5Z" fill="#F99090" fill-opacity="0.7"/>
<path d="M37.7041 57.6341C37.7041 54.7682 40.05 52.698 44.55 52C49.05 51.3019 54.05 51.9999 54.55 56C55.05 60 48.55 56.1341 45.05 57C41.55 57.8659 37.7041 60.5 37.7041 57.6341Z" stroke="#4B2920" stroke-width="3" stroke-linecap="round"/>
</svg>
