<svg width="90" height="78" viewBox="0 0 90 78" fill="none" xmlns="http://www.w3.org/2000/svg">
<path d="M0 30C0 13.4315 13.4315 0 30 0H60C76.5685 0 90 13.4315 90 30V48C90 64.5685 76.5685 78 60 78H30C13.4315 78 0 64.5685 0 48V30Z" fill="#7DC1FF"/>
<path d="M36 60.1787C41 55.6787 47 54.6787 54 60.1787" stroke="#4B2920" stroke-width="3" stroke-linecap="round"/>
<path d="M52 31.4194C56.5 33.9194 58.5 34.4194 64.5 33.9194" stroke="#4B2920" stroke-width="3" stroke-linecap="round"/>
<path d="M28.5 34.9194C33.5 34.4194 35 33.9194 39.5 30.4194" stroke="#4B2920" stroke-width="3" stroke-linecap="round"/>
<circle cx="35" cy="40.9194" r="2.5" fill="#4B2920" stroke="#4B2920"/>
<circle cx="55" cy="40.9194" r="2.5" fill="#4B2920" stroke="#4B2920"/>
<path d="M62.1216 47.4123C59.1264 46.5281 56.1216 46.6922 55.1216 49.0764C54.2122 51.2447 58.6216 51.5764 61.1216 52.0764C63.9587 52.6439 67.6216 53.0764 67.6216 50.0764C67.6216 47.4567 65.1168 48.2966 62.1216 47.4123Z" fill="#F99090" fill-opacity="0.7"/>
<path d="M27.2078 47.8057C25.2078 48.6899 23.7078 48.6899 22.2078 51.6899C20.6143 54.877 28.7078 52.6899 28.7078 52.6899C30.2078 51.6899 34.2078 50.6899 33.7078 48.6899C33.2078 46.6899 30.4581 46.3687 27.2078 47.8057Z" fill="#F99090" fill-opacity="0.7"/>
</svg>
