<svg width="90" height="78" viewBox="0 0 90 78" fill="none" xmlns="http://www.w3.org/2000/svg">
<path d="M0 30C0 13.4315 13.4315 0 30 0H60C76.5685 0 90 13.4315 90 30V48C90 64.5685 76.5685 78 60 78H30C13.4315 78 0 64.5685 0 48V30Z" fill="#F8899D"/>
<path d="M36.5159 62.9194C39.0159 55.9194 51.5159 55.9194 54.5159 62.9194" stroke="#4B2920" stroke-width="3" stroke-linecap="round"/>
<path d="M53.4795 29.4194C49.9795 37.4194 55.516 30.9194 64.516 32.9194" stroke="#4B2920" stroke-width="3" stroke-linecap="round"/>
<path d="M27.5159 31.4194C34.0159 29.9194 39.0159 37.9194 39.5159 29.4194" stroke="#4B2920" stroke-width="3" stroke-linecap="round"/>
<circle cx="35.5159" cy="40.9194" r="2.5" fill="#4B2920" stroke="#4B2920"/>
<circle cx="55.5159" cy="40.9194" r="2.5" fill="#4B2920" stroke="#4B2920"/>
<path d="M61.0159 45.9194C58.0159 46.9194 55.0159 46.9194 55.0159 49.9194C55.0159 52.2706 60.0159 50.9194 62.0159 50.4194C64.5159 49.7944 67.0159 50.4194 67.0159 48.4194C67.0159 46.4194 64.0159 44.9194 61.0159 45.9194Z" fill="#E73F3F" fill-opacity="0.7"/>
<path d="M28.5159 47.4194C26.3292 47.4194 22.3081 48.6488 22.0159 50.9194C21.7237 53.1899 25.5159 51.9194 28.0159 51.9194C30.5159 51.9194 34.5159 52.9194 35.0159 50.9194C35.5159 48.9194 31.5159 47.4194 28.5159 47.4194Z" fill="#E73F3F" fill-opacity="0.7"/>
</svg>
