<svg width="90" height="78" viewBox="0 0 90 78" fill="none" xmlns="http://www.w3.org/2000/svg">
<path d="M0 30C0 13.4315 13.4315 0 30 0H60C76.5685 0 90 13.4315 90 30V48C90 64.5685 76.5685 78 60 78H30C13.4315 78 0 64.5685 0 48V30Z" fill="#A6EFCC"/>
<path d="M41.4936 62.7931C40.4936 58.2931 41.0581 54.8261 44.4936 54.2932C47.929 53.7602 51.0788 58.2932 49.9936 61.8614C48.9083 65.4296 42.4936 67.2932 41.4936 62.7931Z" stroke="#4B2920" stroke-width="3" stroke-linecap="round"/>
<path d="M52.05 33.2502C55.05 27.7502 60.05 28.2502 62.05 34.2502" stroke="#4B2920" stroke-width="3" stroke-linecap="round"/>
<path d="M28.55 35.7502C28.55 27.2502 36.55 28.2502 38.55 33.2502" stroke="#4B2920" stroke-width="3" stroke-linecap="round"/>
<circle cx="35.05" cy="41.7502" r="2.5" fill="#4B2920" stroke="#4B2920"/>
<circle cx="55.05" cy="41.7502" r="2.5" fill="#4B2920" stroke="#4B2920"/>
<path d="M62.05 46.7502C59.55 46.0122 55.1716 46.7502 55.1716 49.9073C55.1716 52.2585 58.5501 50.2502 61.05 50.7502C63.55 51.2502 67.55 52.0931 67.55 50.2502C67.55 48.7209 64.5501 47.4882 62.05 46.7502Z" fill="#F99090" fill-opacity="0.7"/>
<path d="M28.0501 48.2502C25.9058 48.679 22.5501 50.7913 23.0501 52.5207C23.5501 54.2502 26.1802 53.1701 28.5501 52.5207C30.0501 52.1097 34.5501 52.7502 34.0501 50.7502C33.5501 48.7502 30.5501 47.7502 28.0501 48.2502Z" fill="#F99090" fill-opacity="0.7"/>
</svg>
