<svg width="90" height="79" viewBox="0 0 90 79" fill="none" xmlns="http://www.w3.org/2000/svg">
<path d="M0 30.5806C0 14.0121 13.4315 0.580627 30 0.580627H60C76.5685 0.580627 90 14.0121 90 30.5806V48.5806C90 65.1492 76.5685 78.5806 60 78.5806H30C13.4315 78.5806 0 65.1492 0 48.5806V30.5806Z" fill="#FFE27D"/>
<path d="M30.5 52.5C37.5 63 53 60.5 59.5 52.5" stroke="#4B2920" stroke-width="3" stroke-linecap="round"/>
<circle cx="35" cy="34" r="2.5" fill="#4B2920" stroke="#4B2920"/>
<circle cx="55" cy="34" r="2.5" fill="#4B2920" stroke="#4B2920"/>
<path d="M26.0048 40.1158C22.5048 40.1158 19.1569 39.2768 19.0048 42.1158C18.8789 44.4637 21.266 45.3972 23.5048 46.1158C26.8565 47.1916 32.9452 46.508 32.0048 43.1158C31.3049 40.5913 29.5048 40.1158 26.0048 40.1158Z" fill="#F99090" fill-opacity="0.7"/>
<path d="M63.5878 40.0748C60.697 40.3376 58.9109 40.4055 58.0926 43.1906C57.0881 46.6093 64.5878 46.0748 64.5878 46.0748C66.5878 46.0748 71.5878 44.6906 71.5878 43.1906C71.5878 41.6906 69.0878 39.5748 63.5878 40.0748Z" fill="#F99090" fill-opacity="0.7"/>
</svg>
