<svg width="46" height="40" viewBox="0 0 46 40" fill="none" xmlns="http://www.w3.org/2000/svg">
<path d="M19.4435 35.543C18.4435 31.043 19.0081 27.5759 22.4435 27.043C25.879 26.51 29.0288 31.043 27.9435 34.6112C26.8583 38.1794 20.4435 40.043 19.4435 35.543Z" stroke="#4B2920" stroke-width="3" stroke-linecap="round"/>
<path d="M30 6C33 0.5 38 0.999999 40 7" stroke="#4B2920" stroke-width="3" stroke-linecap="round"/>
<path d="M6.5 8.5C6.5 6.67572e-06 14.5 1.00001 16.5 6" stroke="#4B2920" stroke-width="3" stroke-linecap="round"/>
<circle cx="13" cy="14.5" r="2.5" fill="#4B2920" stroke="#4B2920"/>
<circle cx="33" cy="14.5" r="2.5" fill="#4B2920" stroke="#4B2920"/>
<path d="M40 19.5C37.5 18.762 33.1216 19.5 33.1216 22.6571C33.1216 25.0083 36.5 23 39 23.5C41.5 24 45.5 24.8429 45.5 23C45.5 21.4707 42.5 20.238 40 19.5Z" fill="#F99090" fill-opacity="0.7"/>
<path d="M6 21C3.85572 21.4289 0.499994 23.5411 0.999997 25.2706C1.5 27 4.13011 25.9199 6.5 25.2706C8 24.8595 12.5 25.5 12 23.5C11.5 21.5 8.5 20.5 6 21Z" fill="#F99090" fill-opacity="0.7"/>
</svg>
