<svg width="53" height="30" viewBox="0 0 53 30" fill="none" xmlns="http://www.w3.org/2000/svg">
<path d="M11.5 21.5C18.5 32 34 29.5 40.5 21.5" stroke="#4B2920" stroke-width="3" stroke-linecap="round"/>
<circle cx="16" cy="3" r="2.5" fill="#4B2920" stroke="#4B2920"/>
<circle cx="36" cy="3" r="2.5" fill="#4B2920" stroke="#4B2920"/>
<path d="M7.00477 9.11578C3.50477 9.11578 0.156947 8.27679 0.00476995 11.1158C-0.121084 13.4637 2.26599 14.3972 4.50477 15.1158C7.85649 16.1916 13.9452 15.508 13.0048 12.1158C12.3049 9.59128 10.5048 9.11578 7.00477 9.11578Z" fill="#F99090" fill-opacity="0.7"/>
<path d="M44.5878 9.07479C41.697 9.33759 39.9109 9.40551 39.0926 12.1906C38.0881 15.6093 45.5878 15.0748 45.5878 15.0748C47.5878 15.0748 52.5878 13.6906 52.5878 12.1906C52.5878 10.6906 50.0878 8.57479 44.5878 9.07479Z" fill="#F99090" fill-opacity="0.7"/>
</svg>
