<svg width="316" height="276" viewBox="0 0 316 276" fill="none" xmlns="http://www.w3.org/2000/svg">
<g clip-path="url(#clip0_273_62)">
<path d="M150.5 262.5C132.9 254.9 120.5 256.497 99.5731 252.015C85.5 249 60.1723 242.115 44.5723 232.515C25.0723 220.515 14.0731 203.515 5.0731 178.515C-3.9269 153.515 0.0731001 119.015 9.0731 93.5145C18.0731 68.0145 29.0731 46.0145 56.5731 27.5145C84.0731 9.01453 120.573 0.514528 155.573 0.0145279C190.573 -0.485472 229.073 12.0145 246.073 23.0145C263.073 34.0145 291.573 63.0145 304.073 93.5145C316.573 124.015 318.073 142.015 313.073 174.515C308.073 207.015 292.073 238.015 270.073 252.015C248.073 266.015 222.5 276 192 276C170.427 276 163.927 268.298 150.5 262.5Z" fill="#F44A88"/>
<path d="M108.18 138.032C108.18 142.128 105.62 144.219 100.5 144.304C95.4648 144.304 92.9475 142.213 92.9475 138.032V101.552C92.9475 101.211 92.9048 100.912 92.8195 100.656C92.7342 100.4 92.3928 100.272 91.7955 100.272H64.7875C64.1902 100.272 63.8488 100.4 63.7635 100.656C63.6782 100.912 63.6355 101.211 63.6355 101.552V149.552C63.6355 149.893 63.6782 150.192 63.7635 150.448C63.8488 150.704 64.1902 150.832 64.7875 150.832H78.4835C81.7262 150.832 83.3048 153.008 83.2195 157.36C83.2195 161.627 81.6408 163.76 78.4835 163.76H56.4675C53.3955 163.76 51.2622 162.992 50.0675 161.456C48.9582 159.835 48.4035 158.043 48.4035 156.08V95.024C48.4035 93.0613 48.9582 91.312 50.0675 89.776C51.2622 88.1547 53.3955 87.344 56.4675 87.344H100.116C103.188 87.344 105.278 88.1547 106.388 89.776C107.582 91.312 108.18 93.0613 108.18 95.024V138.032ZM161.556 113.328C161.556 116.059 160.574 118.405 158.612 120.368C156.734 122.245 154.43 123.184 151.7 123.184C148.969 123.184 146.622 122.245 144.66 120.368C142.782 118.405 141.844 116.059 141.844 113.328C141.844 110.597 142.782 108.293 144.66 106.416C146.622 104.453 148.969 103.472 151.7 103.472C154.43 103.472 156.734 104.453 158.612 106.416C160.574 108.293 161.556 110.597 161.556 113.328ZM137.62 142C137.62 146.096 135.06 148.144 129.94 148.144C124.905 148.144 122.388 146.096 122.388 142V90.672C122.388 86.576 124.905 84.528 129.94 84.528C135.06 84.528 137.62 86.576 137.62 90.672V142ZM160.916 189.872C160.916 191.835 160.318 193.584 159.124 195.12C158.014 196.741 155.924 197.552 152.852 197.552H92.9475C89.8755 197.552 87.7422 196.741 86.5475 195.12C85.4382 193.584 84.8835 191.835 84.8835 189.872V158.512C84.8835 156.549 85.4382 154.8 86.5475 153.264C87.7422 151.643 89.8755 150.832 92.9475 150.832H152.852C155.924 150.832 158.014 151.643 159.124 153.264C160.318 154.8 160.916 156.549 160.916 158.512V189.872ZM145.684 165.04C145.684 164.699 145.641 164.4 145.556 164.144C145.47 163.888 145.129 163.76 144.532 163.76H101.268C100.67 163.76 100.329 163.888 100.244 164.144C100.158 164.4 100.116 164.699 100.116 165.04V183.344C100.116 183.685 100.158 183.984 100.244 184.24C100.329 184.496 100.67 184.624 101.268 184.624H144.532C145.129 184.624 145.47 184.496 145.556 184.24C145.641 183.984 145.684 183.685 145.684 183.344V165.04ZM241.428 87.216C242.793 87.216 244.03 87.344 245.14 87.6C246.249 87.856 247.145 88.496 247.828 89.52L266.644 119.216C269.204 122.885 268.393 125.787 264.212 127.92C260.116 130.053 256.83 129.285 254.356 125.616L241.428 105.776L228.628 125.488C228.201 126.085 227.732 126.597 227.22 127.024C229.012 128.048 229.908 129.755 229.908 132.144V144.304C229.908 146.267 229.31 148.059 228.116 149.68C227.006 151.216 224.916 151.984 221.844 151.984H173.972C170.729 151.984 169.108 149.851 169.108 145.584C169.193 141.232 170.814 139.056 173.972 139.056H213.524C214.121 139.056 214.462 138.928 214.548 138.672C214.633 138.416 214.676 138.117 214.676 137.776V132.144C214.676 129.84 215.486 128.176 217.108 127.152C216.681 126.725 216.297 126.213 215.956 125.616L203.028 105.776L190.1 125.616C187.71 129.285 184.425 130.053 180.244 127.92C176.062 125.787 175.252 122.885 177.812 119.216L196.628 89.52C197.31 88.5813 198.206 87.984 199.316 87.728C200.425 87.3867 201.662 87.216 203.028 87.216C204.393 87.216 205.63 87.3867 206.74 87.728C207.934 87.984 208.83 88.5813 209.428 89.52L222.228 110.512L235.028 89.52C235.71 88.496 236.606 87.856 237.715 87.6C238.825 87.344 240.062 87.216 241.428 87.216ZM267.796 191.536C267.796 195.632 265.236 197.68 260.116 197.68C255.081 197.68 252.564 195.632 252.564 191.536V172.08C252.564 171.739 252.521 171.44 252.436 171.184C252.35 170.928 252.009 170.8 251.412 170.8H195.988C192.83 170.8 191.209 168.667 191.124 164.4C191.124 160.048 192.745 157.872 195.988 157.872H259.732C262.804 157.872 264.894 158.683 266.004 160.304C267.198 161.84 267.796 163.589 267.796 165.552V191.536Z" fill="white"/>
</g>
<defs>
<clipPath id="clip0_273_62">
<rect width="316" height="276" fill="white"/>
</clipPath>
</defs>
</svg>
