<svg width="47" height="36" viewBox="0 0 47 36" fill="none" xmlns="http://www.w3.org/2000/svg">
<path d="M15 34.5C20 30 26 29 33 34.5" stroke="#4B2920" stroke-width="3" stroke-linecap="round"/>
<path d="M31 3C35.5 5.5 37.5 6 43.5 5.5" stroke="#4B2920" stroke-width="3" stroke-linecap="round"/>
<path d="M7.5 6.5C12.5 6 14 5.5 18.5 2" stroke="#4B2920" stroke-width="3" stroke-linecap="round"/>
<circle cx="14" cy="12.5" r="2.5" fill="#4B2920" stroke="#4B2920"/>
<circle cx="34" cy="12.5" r="2.5" fill="#4B2920" stroke="#4B2920"/>
<path d="M41.1216 18.993C38.1264 18.1087 35.1216 18.2728 34.1216 20.6571C33.2122 22.8253 37.6216 23.1571 40.1216 23.6571C42.9587 24.2245 46.6216 24.6571 46.6216 21.6571C46.6216 19.0373 44.1168 19.8772 41.1216 18.993Z" fill="#F99090" fill-opacity="0.7"/>
<path d="M6.20783 19.3863C4.20782 20.2706 2.70782 20.2706 1.20783 23.2706C-0.292161 26.2706 4.5 24.5 6.50002 24C8.50004 23.5 13.2078 22.2706 12.7078 20.2706C12.2078 18.2706 9.45811 17.9494 6.20783 19.3863Z" fill="#F99090" fill-opacity="0.7"/>
</svg>
