<svg width="41" height="35" viewBox="0 0 41 35" fill="none" xmlns="http://www.w3.org/2000/svg">
<path d="M27 2C29 6.5 33.5 6.00001 36.5 4.5" stroke="#4B2920" stroke-width="3" stroke-linecap="round"/>
<path d="M4 6C10 6.5 12 6.5 14 2" stroke="#4B2920" stroke-width="3" stroke-linecap="round"/>
<circle cx="11" cy="12.5" r="2.5" fill="#4B2920" stroke="#4B2920"/>
<circle cx="31" cy="12.5" r="2.5" fill="#4B2920" stroke="#4B2920"/>
<path d="M36 19C34.3063 18.5 30.5 18 30.5 20C30.5 21.5 33 22 35.5 22.5L35.5 22.5C38 23 41 22.3429 41 20.5C41 18.9707 37.6937 19.5 36 19Z" fill="#F99090" fill-opacity="0.7"/>
<path d="M5.49999 19.5C3.35571 19.9289 4.64916e-06 20.2706 0.500008 22C1.00001 23.7295 4.1301 23.6494 6.49999 23C7.99999 22.589 10.6667 21.5 10 19.5C9.33331 17.5 6.99998 19.2 5.49999 19.5Z" fill="#F99090" fill-opacity="0.7"/>
<path d="M13.1541 31.6341C13.1541 28.7682 15.5 26.698 20 26C24.5 25.3019 29.5 25.9999 30 30C30.5 34 24 30.1341 20.5 31C17 31.8659 13.1541 34.5 13.1541 31.6341Z" stroke="#4B2920" stroke-width="3" stroke-linecap="round"/>
</svg>
