<svg width="200" height="200" viewBox="0 0 200 200" fill="none" xmlns="http://www.w3.org/2000/svg">
<path d="M145 152C133.5 149 122 150 118.5 150C115 150 110 155 113.5 159.5C117 164 130.5 162.5 137.5 163.5C143.5 164.357 149 165.5 150.5 168.5C151.461 170.421 151.232 172 150.5 174C149 178.098 142.098 175.809 142 180C141.908 183.904 145.595 185 149.5 185C154.5 185 158.448 184.531 162 180.5C165.552 176.469 165.5 169.771 164 165C162 158.638 153.699 154.269 145 152Z" fill="#FDFDF5" stroke="#4B2920" stroke-width="2" stroke-linecap="round"/>
</svg>
