<svg width="200" height="200" viewBox="0 0 200 200" fill="none" xmlns="http://www.w3.org/2000/svg">
<path d="M91.4999 23.5C98 16.5 103 6.49996 104.5 29.5C104.691 32.4227 104.422 34.0721 104.5 37C104.739 46.0318 108.343 51.1549 106.5 60C104 71.9999 97.375 72 99 74C105.5 81.9999 109.531 85.4937 117 95C122.5 102 129.914 110.569 132.5 123.5C134.338 132.691 134.5 138.5 132.5 146.5C131.041 152.336 128.931 158.055 124 161.5C117.815 165.821 112.02 166.109 104.5 165.5C96.9798 164.891 97.5768 162.867 92.5 161.5C90.5 164 90 164.7 88 165.5C87.0814 165.867 85.1078 166.425 83 166.678C81 167 80.5 167.031 79 166.678C77.6333 166.355 76.8058 165.806 76.5 165.5C74.9122 163.912 75.4999 161.995 75.4999 159.75C74.389 162.799 73 164.708 70.5 165.5C68.8043 166.037 67.0647 166.302 65.5 166.287C63.9093 166.273 62.4993 165.97 61.4999 165.374C61.0936 165.131 60.7551 164.84 60.5 164.5C59 162.5 61.1391 161.013 61.4999 159.75C63 154.5 60.5259 145.465 59.5 136C58.0384 122.516 56.5 117.5 56.5 104C56.5 93.9664 57.4378 85.9112 58.9999 76C58 75.3448 56.5 74.2414 54.9999 73C51.9791 70.5 50.1028 67.1376 48.5 61.5C46.0292 52.8094 49.7607 47.0318 49.9999 38C50.0529 36 49.647 33.5 49.9999 29.5C51.4999 12.5 54.9516 12.5877 64.4999 23.5C68 27.5 68.3185 30.2438 71 30C76.5 29.5 78.5 29.647 84.5 30C86.558 30.1211 89.337 25.8292 91.4999 23.5Z" fill="#FDFDF5"/>
<path d="M72.9999 80.5C67 80 63.1005 78.6865 58.9999 76M58.9999 76C58 75.3448 56.5 74.2414 54.9999 73C51.9791 70.5 50.1028 67.1376 48.5 61.5C46.0292 52.8094 49.7607 47.0318 49.9999 38C50.0529 36 49.647 33.5 49.9999 29.5C51.4999 12.5 54.9516 12.5877 64.4999 23.5C68 27.5 68.3185 30.2438 71 30C76.5 29.5 78.5 29.647 84.5 30C86.558 30.1211 89.337 25.8292 91.4999 23.5C98 16.5 103 6.49996 104.5 29.5C104.691 32.4227 104.422 34.0721 104.5 37C104.739 46.0318 108.343 51.1549 106.5 60C104 71.9999 97.375 72 99 74C105.5 81.9999 109.531 85.4937 117 95C122.5 102 129.914 110.569 132.5 123.5C134.338 132.691 134.5 138.5 132.5 146.5C131.041 152.336 128.931 158.055 124 161.5C117.815 165.821 112.02 166.109 104.5 165.5C96.9798 164.891 97.5768 162.867 92.5 161.5M58.9999 76C57.4378 85.9112 56.5 93.9664 56.5 104C56.5 117.5 58.0384 122.516 59.5 136C60.5259 145.465 63 154.5 61.4999 159.75C61.1391 161.013 59 162.5 60.5 164.5C60.7551 164.84 61.0936 165.131 61.4999 165.374M92.5 161.5C90.5 164 90 164.7 88 165.5C87.0814 165.867 85.1078 166.425 83 166.678M92.5 161.5C92.6663 159.339 92.8056 158 91.5 156C89.868 153.5 90.5 142.249 90.5 135.5C90.5 129 91 121.5 94.5 118C100.448 112.052 110 114.5 110 114.5M72.9999 117C74.8181 131.368 75.3689 139.518 75.4999 154C75.5203 156.245 75.4999 157.504 75.4999 159.75M72.9999 117C67.5 117 64.5 114.5 64.5 114.5M72.9999 117C78 116.5 81.5 114.5 81.5 114.5M75.4999 159.75C75.4999 161.995 74.9122 163.912 76.5 165.5C76.8058 165.806 77.6333 166.355 79 166.678M75.4999 159.75C74.389 162.799 73 164.708 70.5 165.5C68.8043 166.037 67.0647 166.302 65.5 166.287M61.4999 165.374C62 164 62.5 163 63.5 162.5M61.4999 165.374C62.4993 165.97 63.9093 166.273 65.5 166.287M65.5 166.287C65.5 164.5 66 164 67.5 163M79 166.678C79 164.678 78.5 164.5 79.5 162.5M79 166.678C80.5 167.031 81 167 83 166.678M83 166.678C83 165 83 163.5 84 162.5" stroke="#4B2920" stroke-width="2" stroke-linecap="round"/>
<path d="M75.4999 64C75.4999 64 79.0763 62.9061 79.4999 61C80.1352 58.1408 71.3645 58.1408 71.9999 61C72.3904 62.7574 75.4999 64 75.4999 64ZM75.4999 64C75.4999 64 75.4999 66.1332 75.4999 67.5M75.4999 67.5C73 69.5 72.3365 69.5 70 69.5C67.6635 69.5 65.5 68 65.5 68M75.4999 67.5C77.4999 69.5 78.8801 69.5 81.4999 69.5C84.1196 69.5 85 68 85 68" stroke="#4B2920" stroke-width="2" stroke-linecap="round"/>
<path d="M87.5 55C86 54.7 85 53 85 50.5C85 48.5 86.5479 46 88.5002 46C90.4527 46 92.0002 50.5 91.5002 53C91.0367 55.3176 88.5964 55.2193 87.5 55Z" fill="#4B2920"/>
<path d="M60.9999 54C60 52.9017 59.4997 51 60.5 48.5C60.9495 47.3767 62.9518 44.9669 64.4518 46.2168C65.9518 47.4667 66.4999 50 66 52.5C65.3799 55.6009 61.7527 54.8268 60.9999 54Z" fill="#4B2920"/>
</svg>
