<svg width="200" height="200" viewBox="0 0 200 200" fill="none" xmlns="http://www.w3.org/2000/svg">
<path d="M72.4998 54C76 49.1783 78.5 28 78.5 28C78.5 28 81.2236 30.9373 83.4998 31C87.7807 31.1178 89.9997 22.4999 87.9999 21C86 19.5 77.7528 16.0533 72.0001 18.5C66.8171 20.7042 67.9377 22.5 64.5001 28C61.0625 33.5 57.268 34.2324 55.5 36C53.9996 37.5 61.6717 62.0313 65.5 60.5C67.9999 59.5 70.2287 57.1285 72.4998 54Z" fill="#FDFDF5" stroke="#4B2920" stroke-width="2"/>
<path d="M55.5001 156.5C61.6607 157.544 73.5 156 76 156C78.5 156 78 165 76 166.5C74 168 62 167.5 55.5001 166.5C49.3743 165.558 42.5 161.5 39.5001 158C37.0459 155.137 35.5001 152.367 35.5 151C35.4997 148.5 38.0003 148.5 39.5001 149C41.4006 149.634 48.0638 155.24 55.5001 156.5Z" fill="#FDFDF5" stroke="#4B2920" stroke-width="2"/>
<path d="M132.5 18.5C129.5 17.2263 126.33 17.7356 122.5 18.5C119.653 19.0682 117.5 19.3899 115.5 21C113.5 22.6101 115.294 31.047 119.5 31L124.5 28C124.5 28 126.187 36.2494 128 43.5C129.5 49.5 129.903 55.3224 134.5 59C137 61 138.711 60.7183 140 59C144.5 53 149 42.5 148.5 38C148.084 34.2519 144.5 34 141.5 31C136.993 26.4919 138 20.8353 132.5 18.5Z" fill="#FDFDF5" stroke="#4B2920" stroke-width="2"/>
<path d="M90.0004 17C98.0004 15.0895 105.499 14.4999 113.5 16.4999C117.5 17.4998 122.134 20 124 24C125.867 28 128.5 35.4999 129.5 40.9999C130.5 46.4999 130.001 52.9999 129 56.9999C127.98 61.0804 125.933 61.3162 125.5 65.4999C125.072 69.6392 126.641 74.4283 127.5 78.4999C129.916 89.9413 132.5 94.9999 137 106C139.293 111.605 141.5 114.444 141.5 120.5C141.5 124.5 140.062 126.609 142 130C143.143 132 148 135 149.5 140C151.269 145.898 150.757 150.738 147 156.5C144.185 160.818 138.5 165 138.5 165C138.5 165 145.553 167.697 147.5 172C148.631 174.5 147.625 176.5 146.5 178C145.166 179.778 142.935 180.18 140 179.92C137.778 179.723 135.439 179.146 133.5 178.5C129 177 125.5 173.5 125.5 173.5C125.5 173.5 127.501 176.5 126.5 178.5C125 180.5 123.807 180.677 123 181C121.5 181.5 117.5 180.951 117.5 180.951C115.285 180.841 113.022 180.503 111.5 179.5C110.156 178.614 109.288 177.767 108.5 176C107.422 173.579 107 168.286 107 168.286L93.0004 168.5C93.0004 168.5 91.9892 171.217 91.0004 173C89.1062 176.415 86.5004 178.69 84.0004 179.5C82.5108 179.982 79.5 180.048 78 180C76.5 179.952 74.2287 180.229 73 179.5C71 178.314 70.5 176.5 70.5 176.5C68.4221 176.5 65.265 176.77 62.5 176.679C60.697 176.62 59.061 176.407 58 175.865C57.556 175.639 57.2126 175.354 57 175C55.5 172.499 55.9727 170.037 57.5004 168C59.3757 165.5 70.5004 165 70.5004 165C70.5004 165 65.1943 156.445 65.0004 150.5C64.8491 145.861 65.7349 141.792 67.5004 137.5C69.0298 133.781 72 129 72 126.5C72 126.196 70.6813 120.488 70.5004 114C70.2654 105.571 71.3633 100.855 72.5002 92.4999C73.3009 86.6155 74.5001 83.4386 74.5004 77.4999C74.5006 73.5 75.5862 71.2427 77.0004 66.9999C78.0004 63.9999 74.7641 61.6379 73.5004 57.9999C72.0004 53.6818 72.588 48.3787 73.5004 41.9999C74.6982 33.6256 76.0004 27.4999 80.5004 22.4999C83.2004 19.5 86.0004 17.9552 90.0004 17Z" fill="#FDFDF5"/>
<path d="M146.5 178C147.625 176.5 148.631 174.5 147.5 172C145.553 167.697 138.5 165 138.5 165C138.5 165 144.185 160.818 147 156.5C150.757 150.738 151.269 145.898 149.5 140C148 135 143.143 132 142 130C140.062 126.609 141.5 124.5 141.5 120.5C141.5 114.444 139.293 111.605 137 106C132.5 94.9999 129.916 89.9413 127.5 78.4999C126.641 74.4283 125.072 69.6392 125.5 65.4999C125.933 61.3162 127.98 61.0804 129 56.9999C130.001 52.9999 130.5 46.4999 129.5 40.9999C128.5 35.4999 125.867 28 124 24C122.134 20 117.5 17.4998 113.5 16.4999C105.499 14.4999 98.0004 15.0895 90.0004 17C86.0004 17.9552 83.2004 19.5 80.5004 22.4999C76.0004 27.4999 74.6982 33.6256 73.5004 41.9999C72.588 48.3787 72.0004 53.6818 73.5004 57.9999C74.7641 61.6379 78.0004 63.9999 77.0004 66.9999C75.5862 71.2427 74.5006 73.5 74.5004 77.4999C74.5001 83.4386 73.3009 86.6155 72.5002 92.4999C71.3633 100.855 70.2654 105.571 70.5004 114C70.6813 120.488 72 126.196 72 126.5M146.5 178C145.166 179.778 142.935 180.18 140 179.92M146.5 178C146.5 178 145.44 175.171 144.5 173.5C143.56 171.829 142 171 142 171M93.0004 168.5C93.0004 168.5 91.9892 171.217 91.0004 173C89.1062 176.415 86.5004 178.69 84.0004 179.5C82.5108 179.982 79.5 180.048 78 180M93.0004 168.5C93.0004 168.5 95.8993 161.019 96.0001 156C96.0794 152.052 94.8461 149.934 94.5001 146C94.0039 140.359 94.5001 131.5 94.5001 131.5M93.0004 168.5L107 168.286M70.5 176.5C70.5 176.5 70.0756 173.5 71.5004 172C72.8141 170.617 77.6735 168.175 78.5004 167C80.1599 164.642 80.7614 159.871 80.5004 157C80.0004 151.5 79.7586 146.369 76.5001 137C75.0346 132.786 72 126.5 72 126.5M70.5 176.5C70.5 176.5 71 178.314 73 179.5M70.5 176.5C68.4221 176.5 65.265 176.77 62.5 176.679M72 126.5C72 129 69.0298 133.781 67.5004 137.5C65.7349 141.792 64.8491 145.861 65.0004 150.5C65.1943 156.445 70.5004 165 70.5004 165C70.5004 165 59.3757 165.5 57.5004 168C55.9727 170.037 55.5 172.499 57 175C57.2126 175.354 57.556 175.639 58 175.865M104.5 132C104.5 132 105.964 136.516 106.5 139.5C107.813 146.806 105.569 151.09 106 158.5C106.224 162.335 107 168.286 107 168.286M125.5 173.5C125.5 173.5 123.357 171.5 122.5 169.5C120.144 164 123.5 151.5 123.5 151.5C124.971 144.489 127.623 141.03 129 134C130.393 126.887 130.5 115.5 130.5 115.5M125.5 173.5C125.5 173.5 129 177 133.5 178.5C135.439 179.146 137.778 179.723 140 179.92M125.5 173.5C125.5 173.5 127.501 176.5 126.5 178.5C125 180.5 123.807 180.677 123 181M107 168.286C107 168.286 107.422 173.579 108.5 176C109.288 177.767 110.156 178.614 111.5 179.5C113.022 180.503 115.285 180.841 117.5 180.951M140 179.92C140 179.92 140.277 177.292 139.5 175.5C138.914 174.149 137 173 137 173M123 181C123.683 179.621 123.683 177.879 123 176.5C122.317 175.121 120.5 173.5 120.5 173.5M123 181C121.5 181.5 117.5 180.951 117.5 180.951M117.5 180.951C117.5 180.951 117.391 178.662 117 177.5C116.609 176.338 115.5 175 115.5 175M78 180C77.9085 178.262 77.5982 176.706 78 175.5C78.4018 174.294 79.5 173.5 79.5 173.5M78 180C76.5 179.952 74.2287 180.229 73 179.5M73 179.5C73.0743 178.101 72.9073 176.269 73.5 175C74.0927 173.731 75 173 75 173M62.5 176.679C60.697 176.62 59.061 176.407 58 175.865M62.5 176.679C62.5 176.679 62.8588 173.872 63.5 172.5C64.4348 170.5 65.5 170 65.5 170M58 175.865C58 175.865 58.5118 173.145 59 172C59.4882 170.855 60.5 170 60.5 170" stroke="#4B2920" stroke-width="2" stroke-linecap="round"/>
<path d="M114 43.5C112.197 42.6108 111.335 40.3972 112 38.5C112.5 37.0731 116.615 37 118 39C118.692 40 119.5 41 118.5 43C118.046 43.9088 115 43.993 114 43.5Z" fill="#4B2920"/>
<path d="M87.0002 42.9999C85.6942 41.7609 85.9867 39.9879 87 38.4999C87.681 37.4999 90.3858 36.4427 91.5001 36.9999C93.5 38 93.3471 40.8267 92.0003 42.4999C90.8388 43.943 88.3441 44.2749 87.0002 42.9999Z" fill="#4B2920"/>
<path d="M102 54.5C102 54.5 105.529 53.4709 107 52C108 51 108.939 49.1519 107.5 48C105.865 46.6924 98.9995 46.75 96.4995 48C94.9996 48.75 95.3631 50.3631 97.5 52.5C98.8603 53.8603 102 54.5 102 54.5ZM102 54.5V58.5M90.4995 55.5C90.4995 55.5 91.6999 57.7423 93.4995 58.5C94.0782 58.7437 94.7677 58.8894 95.5 58.9667M102 58.5C102 58.5 98.4112 59.274 95.5 58.9667M102 58.5C102 58.5 105.154 59.4952 108 59.0913M113.5 56C113.5 56 111.682 57.6587 110 58.5C109.387 58.8065 108.703 58.9915 108 59.0913M95.5 58.9667C95.5 58.9667 96.177 61.5 97.5 63C99.8249 65.6359 104.177 65.3229 106 63.5C107.823 61.6771 108 59.0913 108 59.0913" stroke="#4B2920" stroke-width="2" stroke-linecap="round"/>
</svg>
