<svg width="200" height="200" viewBox="0 0 200 200" fill="none" xmlns="http://www.w3.org/2000/svg">
<path d="M132.5 18.5C129.5 17.2263 126.329 17.7356 122.5 18.5C119.653 19.0682 117.5 19.3899 115.5 21C113.5 22.6101 115.294 31.047 119.5 31L124.5 28C124.5 28 126.187 36.2494 128 43.5C129.5 49.5 129.903 55.3224 134.5 59C137 61 138.711 60.7183 140 59C144.5 53 149 42.5 148.5 38C148.083 34.2519 144.5 34 141.5 31C136.992 26.4919 138 20.8353 132.5 18.5Z" fill="#FDFDF5" stroke="#4B2920" stroke-width="2"/>
</svg>
