<svg width="200" height="200" viewBox="0 0 200 200" fill="none" xmlns="http://www.w3.org/2000/svg">
<path d="M44.0002 155C44.0002 155 41.5 167.111 31 164C20.5 160.889 18.5006 146.5 24.5004 141C30.5002 135.5 38.5002 142.5 38.5002 142.5L44.0002 155Z" fill="#FDFDF5" stroke="#4B2920" stroke-width="2" stroke-linecap="round"/>
<path d="M131 56.5C133.961 63.6875 135 76 135 76L129 80C129 80 126.036 71.3222 122.5 66.9999C118 61.4999 116.444 61.4999 110 53.4999C103.556 45.4999 103 40 97.9998 22C92.9998 3.99994 111.5 20.4998 121 35.9999C124.342 41.4532 128.563 50.5862 131 56.5Z" fill="#FDFDF5" stroke="#4B2920" stroke-width="2" stroke-linecap="round"/>
<path d="M140.5 60.5C139.372 65.4845 140 77.5 140 77.5L144 80.5C144 80.5 144.812 75.1387 146 73C148.5 68.5 153 63 156 58.5C159.667 52.9999 170 41 170 21C170 1.00011 159.5 22.4999 152.5 32.5C145.5 42.5001 142.601 51.2142 140.5 60.5Z" fill="#FDFDF5" stroke="#4B2920" stroke-width="2" stroke-linecap="round"/>
<path d="M167.108 96.4849C169.5 103 170.608 110.073 168.108 114.485C166.745 116.89 165.535 118.503 163.608 120.485C164.104 125.048 164.104 127.422 163.608 131.985C162.686 140.46 159.608 144.985 155.608 150.485C150.831 157.053 143.608 159.985 138.608 161.485C136.108 162.235 135.108 171.144 136.608 174.485C137.281 175.985 143.108 177.485 141.108 179.985C140.948 180.184 140.743 180.349 140.5 180.482C137.968 181.873 131.352 179.897 130.108 178.985C130.481 179.731 130.955 180.568 130.889 181.5C130.866 181.817 130.781 182.146 130.608 182.485C130.411 182.872 130.204 183.209 129.985 183.5C129 184.5 126.5 184.5 125 184.5C123.5 184.5 116.605 183.982 112.108 179.485C108.608 175.985 107.608 174.485 106.108 171.985C103.608 171.985 101.134 172.232 98.608 172.485L98.6079 172.485C86.5 173.696 86.5 175 83 178C83.5473 178.821 83.8851 179.85 83.8833 180.907C83.8818 181.781 83.6479 182.675 83.1079 183.485C82.108 184.985 73.6079 183.985 60.6079 183.485C56.873 183.341 48.6079 174.401 46.1079 171.485C39.9384 164.287 34.2445 159.721 32.1078 150.485C29.5096 139.254 31.672 130.902 36.608 120.485C40.8727 111.485 48.6079 103.817 57.1078 98.4848C65.1107 93.464 70.6934 91.7754 80.1078 90.9848C89.9604 90.1575 105.108 94.9848 105.108 94.9848C105.108 94.9848 108 87.4999 114.5 80.9999C121 74.4999 126 71.711 136.5 70.9999C147 70.2889 154.108 74.6098 157.608 78.9848C161.608 83.9849 164.716 89.9699 167.108 96.4849Z" fill="#FDFDF5"/>
<path d="M159.108 124.485C159.108 124.485 161.85 122.047 163.608 120.485M105.108 94.9848C105.108 94.9848 108 87.4999 114.5 80.9999C121 74.4999 126 71.711 136.5 70.9999C147 70.2889 154.108 74.6098 157.608 78.9848C161.608 83.9849 164.716 89.9699 167.108 96.4849C169.5 103 170.608 110.073 168.108 114.485C166.745 116.89 165.535 118.503 163.608 120.485M105.108 94.9848C105.108 94.9848 101.444 107.809 105.108 114.485C108.862 121.325 122.108 124.985 122.108 124.985M105.108 94.9848C105.108 94.9848 89.9604 90.1575 80.1078 90.9848C70.6934 91.7754 65.1107 93.464 57.1078 98.4848C48.6079 103.817 40.8727 111.485 36.608 120.485C31.672 130.902 29.5096 139.254 32.1078 150.485C34.2445 159.721 39.9384 164.287 46.1079 171.485C48.6079 174.401 56.873 183.341 60.6079 183.485C73.6079 183.985 82.108 184.985 83.1079 183.485M83.1079 183.485C83.1079 183.485 82.3998 182.9 81.5 182C80.6002 181.1 79 181 79 181M83.1079 183.485C83.6479 182.675 83.8818 181.781 83.8833 180.907M83 178C79.3921 175.015 77 174.971 73.1078 174.485M83 178C86.5 175 86.5 173.696 98.6079 172.485C101.134 172.232 103.608 171.985 106.108 171.985M83 178C83.5473 178.821 83.8851 179.85 83.8833 180.907M73.1078 174.485C77.7979 173.362 80.5115 171.682 83.6078 167.985C87.4145 163.439 87.3053 159.359 88.1078 153.485C88.7685 148.648 89.9688 145.498 88.1078 140.985C86.37 136.771 80.1078 132.485 80.1078 132.485M73.1078 174.485C69.9836 174.094 68 174.485 68 174.485M106.108 171.985C107.608 174.485 108.608 175.985 112.108 179.485C116.605 183.982 123.5 184.5 125 184.5C126.5 184.5 129 184.5 129.985 183.5M106.108 171.985C103.408 167.485 99.1768 162.252 98.6078 158.485C98.2811 156.322 98.5005 153.702 99.1079 151.985C99.9418 149.627 102.608 146.985 102.608 146.985M130.108 178.985C127.179 176.837 127.301 176.485 126.108 174.485C122.827 168.985 125.108 161.485 125.108 161.485M130.108 178.985C130.481 179.731 130.955 180.568 130.889 181.5M130.108 178.985C131.352 179.897 137.968 181.873 140.5 180.482M163.608 120.485C164.104 125.048 164.104 127.422 163.608 131.985C162.686 140.46 159.608 144.985 155.608 150.485C150.831 157.053 143.608 159.985 138.608 161.485C136.108 162.235 135.108 171.144 136.608 174.485C137.281 175.985 143.108 177.485 141.108 179.985C140.948 180.184 140.743 180.349 140.5 180.482M130.889 181.5C130.866 181.817 130.781 182.146 130.608 182.485C130.411 182.872 130.204 183.209 129.985 183.5M130.889 181.5C130 180.5 129.442 180.196 128 179.985M140.5 180.482C139.505 179.277 139.364 178.827 138 178.5M129.985 183.5C129 182.5 128.296 182.193 127.108 182M83.8833 180.907C82.4136 179.565 81.648 179.157 80.5 179" stroke="#4B2920" stroke-width="2" stroke-linecap="round"/>
<path d="M156.5 104.5C154.697 103.611 156.092 96.6356 158 96C159.5 95.5 161.224 98.0001 161.5 99.5C161.684 100.5 162 102.04 161 104.04C160.545 104.949 157.499 104.993 156.5 104.5Z" fill="#4B2920"/>
<path d="M121 104.5C119.39 103.695 119 101 120 98.5001C120.45 97.3768 122.5 95.2501 124 96.5C125.5 97.7498 126.5 101 126 103.5C125.38 106.601 122 105 121 104.5Z" fill="#4B2920"/>
<path d="M140 113C140 113 141.5 114.5 143 114.5M143 114.5C144.5 114.5 146 112.5 146 112.5M143 114.5C143 115.867 143 116.633 143 118M143 118C141.5 118 139.5 119 139.5 119M143 118C144.5 118 147 119 147 119" stroke="#4B2920" stroke-width="2" stroke-linecap="round"/>
</svg>
